<svg width="29" height="29" viewBox="0 0 29 29" fill="none" xmlns="http://www.w3.org/2000/svg">
<path d="M21.9955 24.1667L23.1631 18.329C23.3707 17.2868 22.6724 16.4336 21.6084 16.4336H7.39113C6.3277 16.4336 5.62822 17.2868 5.83673 18.329L7.00456 24.1667H2.8999V26.1002H26.0999V24.1667H21.9955ZM15.4665 22.2336H13.533V20.3002H15.4665V22.2336Z" fill="black"/>
<path d="M21.8011 9.45042L20.3 8.6999C20.3 5.49598 17.704 2.8999 14.5 2.8999C11.2967 2.8999 8.70003 5.49598 8.70003 8.6999L7.19899 9.45042C6.96119 9.56932 6.7666 9.88368 6.7666 10.1499V12.0833C6.7666 12.3496 6.9609 12.6639 7.19899 12.7828L8.70003 13.5333H10.6335V8.6999C10.6335 6.5684 12.368 4.83333 14.5 4.83333C16.6327 4.83333 18.3666 6.5684 18.3666 8.6999V12.6016C16.894 13.2056 15.2514 13.5333 13.5332 13.5333V15.4668C16.9305 15.4668 20.0063 14.3587 22.2332 12.5668V10.1499C22.2335 9.88368 22.0389 9.56932 21.8011 9.45042Z" fill="black"/>
</svg>
