<svg width="24" height="25" viewBox="0 0 24 25" fill="none" xmlns="http://www.w3.org/2000/svg">
<g clip-path="url(#clip0_16_1274)">
<path d="M10.1152 13.8435C10.1152 14.524 9.56353 15.0758 8.88294 15.0758C8.20239 15.0758 7.65071 14.5241 7.65071 13.8435C7.65071 13.1629 8.20239 12.6112 8.88294 12.6112C9.56353 12.6112 10.1152 13.1629 10.1152 13.8435ZM15.1171 12.6112C14.4365 12.6112 13.8848 13.1629 13.8848 13.8435C13.8848 14.5241 14.4365 15.0758 15.1171 15.0758C15.7976 15.0758 16.3494 14.5241 16.3494 13.8435C16.3493 13.1629 15.7976 12.6112 15.1171 12.6112ZM24 13.1566V15.4985C24 16.6743 23.0469 17.6274 21.8711 17.6274H20.3262C18.7954 21.8778 14.8864 24.445 12 24.445C9.11357 24.445 5.20459 21.8778 3.6738 17.6274H2.12894C0.953137 17.6274 0 16.6743 0 15.4985V13.1566C0 12.3475 0.451412 11.6439 1.11608 11.2837C1.13839 7.95879 2.10745 5.36205 4.00051 3.56687C5.87824 1.78624 8.56965 0.883301 12 0.883301C15.4304 0.883301 18.1218 1.78624 19.9995 3.56683C21.8925 5.36201 22.8615 7.95879 22.8839 11.2837C23.5486 11.6439 24 12.3475 24 13.1566ZM19.4941 13.8513C19.4941 13.3035 19.466 12.7888 19.4246 12.29C18.4798 11.4256 16.7645 10.7697 14.5998 10.5259C14.884 10.8455 15.1296 11.266 15.2785 11.8194C13.9525 10.7748 11.3498 11.0234 9.38114 8.68585C9.26827 8.5553 9.17067 8.43056 9.08628 8.31656C9.08529 8.31518 9.0842 8.31412 9.08322 8.31279L9.08345 8.31287C8.73322 7.83922 8.6138 7.5575 8.60714 7.86934C8.54937 10.5561 6.64502 12.6507 4.53035 12.9462C4.51698 13.2417 4.50604 13.54 4.50604 13.8513C4.50604 14.9869 4.69149 16.022 5.00678 16.9547C6.19463 18.3875 8.15627 18.7921 9.89251 18.8994C10.2148 18.3866 10.938 18.0286 11.7802 18.0286C12.922 18.0286 13.8476 18.6857 13.8476 19.4962C13.8476 20.3067 12.922 20.9638 11.7802 20.9638C10.9019 20.9638 10.1534 20.5744 9.85384 20.026C8.64039 19.9555 7.30643 19.7486 6.11753 19.1872C7.78945 21.6516 10.3814 22.9547 12 22.9547C14.5435 22.9547 19.4941 19.7416 19.4941 13.8513ZM21.6022 11.0277C21.4667 5.22565 18.1549 2.16071 12 2.16071C5.84506 2.16071 2.53337 5.22565 2.39784 11.0277H3.21694C3.51643 9.07208 4.14941 7.46381 5.11047 6.22718C6.64196 4.25667 8.95992 3.2575 12 3.2575C15.0401 3.2575 17.358 4.25667 18.8896 6.22718C19.8506 7.46377 20.4836 9.07208 20.7831 11.0277H21.6022Z" fill="black"/>
</g>
<defs>
<clipPath id="clip0_16_1274">
<rect width="24" height="24" fill="white" transform="translate(0 0.664062)"/>
</clipPath>
</defs>
</svg>
