<svg width="23" height="23" viewBox="0 0 23 23" fill="none" xmlns="http://www.w3.org/2000/svg">
<g clip-path="url(#clip0_131_418)">
<path d="M15.2461 11.6177L23 16.5195V6.50879L15.2461 11.6177Z" fill="black"/>
<path d="M0 6.50879V16.5195L7.75388 11.6177L0 6.50879Z" fill="black"/>
<path d="M21.5626 3.59375H1.43759C0.720275 3.59375 0.151025 4.1285 0.0432129 4.81706L11.5001 12.3654L22.957 4.81706C22.8492 4.1285 22.2799 3.59375 21.5626 3.59375Z" fill="black"/>
<path d="M13.9293 12.4863L11.8952 13.8261C11.7745 13.9051 11.6379 13.9439 11.4999 13.9439C11.3619 13.9439 11.2253 13.9051 11.1046 13.8261L9.07052 12.4849L0.0458984 18.1932C0.156586 18.876 0.722961 19.4064 1.4374 19.4064H21.5624C22.2768 19.4064 22.8432 18.876 22.9539 18.1932L13.9293 12.4863Z" fill="black"/>
</g>
<defs>
<clipPath id="clip0_131_418">
<rect width="23" height="23" fill="white"/>
</clipPath>
</defs>
</svg>
