<svg width="23" height="23" viewBox="0 0 23 23" fill="none" xmlns="http://www.w3.org/2000/svg">
<path d="M11.1953 2.01891C14.1861 2.01891 14.5405 2.02965 15.7218 2.08335C16.8118 2.13167 17.4078 2.31423 17.7997 2.46995C18.3206 2.67399 18.6964 2.91561 19.0884 3.30758C19.4804 3.69955 19.722 4.07005 19.926 4.59625C20.0818 4.98822 20.2643 5.58423 20.3126 6.67423C20.3663 7.85551 20.3771 8.2099 20.3771 11.2007C20.3771 14.1915 20.3663 14.5459 20.3126 15.7271C20.2643 16.8171 20.0818 17.4131 19.926 17.8051C19.722 18.3259 19.4804 18.7018 19.0884 19.0938C18.6964 19.4858 18.3259 19.7274 17.7997 19.9314C17.4078 20.0871 16.8118 20.2697 15.7218 20.318C14.5405 20.3717 14.1861 20.3825 11.1953 20.3825C8.20453 20.3825 7.85014 20.3717 6.66886 20.318C5.57886 20.2697 4.98285 20.0871 4.59088 19.9314C4.07005 19.7274 3.69418 19.4858 3.30221 19.0938C2.91024 18.7018 2.66862 18.3313 2.46458 17.8051C2.30887 17.4131 2.1263 16.8171 2.07798 15.7271C2.02428 14.5459 2.01355 14.1915 2.01355 11.2007C2.01355 8.2099 2.02428 7.85551 2.07798 6.67423C2.1263 5.58423 2.30887 4.98822 2.46458 4.59625C2.66862 4.07542 2.91024 3.69955 3.30221 3.30758C3.69418 2.91561 4.06468 2.67399 4.59088 2.46995C4.98285 2.31423 5.57886 2.13167 6.66886 2.08335C7.85014 2.02965 8.20453 2.01891 11.1953 2.01891ZM11.1953 0C8.1562 0 7.77497 0.0107389 6.57758 0.0698029C5.38556 0.123497 4.57478 0.311428 3.86064 0.59064C3.12502 0.875221 2.50217 1.25645 1.87931 1.87931C1.25645 2.50217 0.875221 3.12502 0.59064 3.86064C0.311428 4.57478 0.123497 5.38556 0.0698029 6.57758C0.0161084 7.7696 0 8.15083 0 11.1953C0 14.2344 0.0107389 14.6157 0.0698029 15.813C0.123497 17.0051 0.311428 17.8159 0.59064 18.53C0.875221 19.2656 1.26182 19.8885 1.87931 20.5113C2.50217 21.1342 3.12502 21.5154 3.86064 21.8C4.57478 22.0792 5.38556 22.2671 6.57758 22.3208C7.7696 22.3745 8.15083 22.3906 11.1953 22.3906C14.2344 22.3906 14.6157 22.3799 15.813 22.3208C17.0051 22.2671 17.8159 22.0792 18.53 21.8C19.2656 21.5154 19.8885 21.1288 20.5113 20.5113C21.1342 19.8885 21.5154 19.2656 21.8 18.53C22.0792 17.8159 22.2671 17.0051 22.3208 15.813C22.3745 14.621 22.3906 14.2398 22.3906 11.1953C22.3906 8.1562 22.3799 7.77497 22.3208 6.57758C22.2671 5.38556 22.0792 4.57478 21.8 3.86064C21.5154 3.12502 21.1288 2.50217 20.5113 1.87931C19.8885 1.25645 19.2656 0.875221 18.53 0.59064C17.8159 0.311428 17.0051 0.123497 15.813 0.0698029C14.6157 0.0107389 14.2344 0 11.1953 0Z" fill="black"/>
<path d="M11.1953 5.44482C8.02192 5.44482 5.44458 8.01679 5.44458 11.1955C5.44458 14.3689 8.01655 16.9462 11.1953 16.9462C14.374 16.9462 16.946 14.3742 16.946 11.1955C16.946 8.02216 14.3686 5.44482 11.1953 5.44482ZM11.1953 14.9273C9.1334 14.9273 7.4635 13.2574 7.4635 11.1955C7.4635 9.13364 9.1334 7.46374 11.1953 7.46374C13.2571 7.46374 14.927 9.13364 14.927 11.1955C14.927 13.2574 13.2571 14.9273 11.1953 14.9273Z" fill="black"/>
<path d="M18.5138 5.21932C18.5138 5.9603 17.9124 6.56168 17.1715 6.56168C16.4305 6.56168 15.8291 5.9603 15.8291 5.21932C15.8291 4.47833 16.4305 3.87695 17.1715 3.87695C17.9124 3.87695 18.5138 4.47833 18.5138 5.21932Z" fill="black"/>
</svg>
