<svg width="19" height="19" viewBox="0 0 19 19" fill="none" xmlns="http://www.w3.org/2000/svg">
<path d="M13.7592 4.27916H11.8224V3.66923C11.8221 3.37529 11.7051 3.0935 11.4973 2.88566C11.2895 2.67782 11.0077 2.5609 10.7137 2.56055H8.29005C7.99612 2.5609 7.71433 2.67782 7.50649 2.88566C7.29865 3.0935 7.18173 3.37529 7.18138 3.66923V4.27916H5.2793C5.01366 4.27947 4.75899 4.38513 4.57116 4.57297C4.38332 4.7608 4.27766 5.01547 4.27734 5.28111V6.50394C4.27732 6.53806 4.28403 6.57184 4.29708 6.60337C4.31013 6.63489 4.32926 6.66354 4.35338 6.68766C4.37751 6.71179 4.40615 6.73092 4.43768 6.74397C4.4692 6.75702 4.50299 6.76372 4.53711 6.7637H4.85744V14.9922C4.85787 15.3759 5.01049 15.7438 5.28181 16.0151C5.55313 16.2864 5.921 16.439 6.3047 16.4395H12.7338C13.1175 16.439 13.4854 16.2864 13.7567 16.015C14.028 15.7437 14.1806 15.3759 14.1811 14.9922V6.7637H14.5014C14.5703 6.7637 14.6364 6.73633 14.6851 6.68762C14.7338 6.6389 14.7612 6.57283 14.7612 6.50394V5.28111C14.7609 5.01547 14.6552 4.7608 14.4674 4.57297C14.2795 4.38513 14.0249 4.27947 13.7592 4.27916ZM7.70091 3.66923C7.7011 3.51303 7.76324 3.3633 7.87368 3.25285C7.98413 3.14241 8.13386 3.08027 8.29005 3.08008H10.7137C10.8699 3.08027 11.0197 3.14241 11.1301 3.25285C11.2406 3.3633 11.3027 3.51303 11.3029 3.66923V4.27916H7.70091V3.66923ZM13.6616 14.9922C13.6613 15.2382 13.5635 15.474 13.3895 15.6479C13.2156 15.8218 12.9798 15.9196 12.7338 15.9199H6.3047C6.05874 15.9196 5.82292 15.8218 5.649 15.6479C5.47508 15.474 5.37724 15.2382 5.37697 14.9922V6.7637H13.6616V14.9922ZM14.2417 6.24417H4.79643V5.28111C4.79659 5.15321 4.84746 5.0306 4.9379 4.94016C5.02834 4.84972 5.15095 4.79884 5.27885 4.79869H13.7592C13.8871 4.79884 14.0097 4.84972 14.1002 4.94016C14.1906 5.0306 14.2415 5.15321 14.2417 5.28111V6.24417Z" fill="#838383"/>
<path d="M9.51758 14.1673C9.58647 14.1673 9.65254 14.14 9.70126 14.0913C9.74998 14.0425 9.77734 13.9765 9.77734 13.9076V8.33612C9.77734 8.26723 9.74998 8.20115 9.70126 8.15244C9.65254 8.10372 9.58647 8.07635 9.51758 8.07635C9.44868 8.07635 9.38261 8.10372 9.3339 8.15244C9.28518 8.20115 9.25781 8.26723 9.25781 8.33612V13.9076C9.25779 13.9417 9.2645 13.9755 9.27755 14.007C9.29059 14.0385 9.30973 14.0672 9.33385 14.0913C9.35798 14.1154 9.38662 14.1346 9.41815 14.1476C9.44967 14.1607 9.48346 14.1674 9.51758 14.1673Z" fill="#838383"/>
<path d="M7.24414 14.1673C7.31303 14.1673 7.37911 14.14 7.42782 14.0913C7.47654 14.0425 7.50391 13.9765 7.50391 13.9076V8.33612C7.50391 8.26723 7.47654 8.20115 7.42782 8.15244C7.37911 8.10372 7.31303 8.07635 7.24414 8.07635C7.17525 8.07635 7.10917 8.10372 7.06046 8.15244C7.01174 8.20115 6.98438 8.26723 6.98438 8.33612V13.9076C6.98438 13.9765 7.01174 14.0425 7.06046 14.0913C7.10917 14.14 7.17525 14.1673 7.24414 14.1673Z" fill="#838383"/>
<path d="M11.7949 14.1673C11.8638 14.1673 11.9299 14.14 11.9786 14.0913C12.0273 14.0425 12.0547 13.9765 12.0547 13.9076V8.33612C12.0547 8.26723 12.0273 8.20115 11.9786 8.15244C11.9299 8.10372 11.8638 8.07635 11.7949 8.07635C11.726 8.07635 11.66 8.10372 11.6112 8.15244C11.5625 8.20115 11.5352 8.26723 11.5352 8.33612V13.9076C11.5351 13.9417 11.5418 13.9755 11.5549 14.007C11.5679 14.0385 11.5871 14.0672 11.6112 14.0913C11.6353 14.1154 11.664 14.1346 11.6955 14.1476C11.727 14.1607 11.7608 14.1674 11.7949 14.1673Z" fill="#838383"/>
</svg>
