<svg width="23" height="23" viewBox="0 0 23 23" fill="none" xmlns="http://www.w3.org/2000/svg">
<path d="M19.5223 6.27469C19.4738 5.73709 19.2253 5.23726 18.8261 4.87396C18.4269 4.51066 17.9059 4.31031 17.3661 4.3125H15.0445C14.793 2.45813 13.5639 1.4375 11.5011 1.4375C9.43828 1.4375 8.20922 2.45813 7.95766 4.3125H5.62891C5.08912 4.31031 4.56815 4.51066 4.16892 4.87396C3.76968 5.23726 3.52124 5.73709 3.47266 6.27469L2.29391 19.2122C2.26688 19.5112 2.30261 19.8126 2.3988 20.0971C2.495 20.3815 2.64954 20.6427 2.85252 20.864C3.05551 21.0852 3.30247 21.2616 3.57758 21.3819C3.8527 21.5022 4.1499 21.5637 4.45016 21.5625H18.552C18.8523 21.5637 19.1495 21.5022 19.4246 21.3819C19.6997 21.2616 19.9467 21.0852 20.1497 20.864C20.3527 20.6427 20.5072 20.3815 20.6034 20.0971C20.6996 19.8126 20.7353 19.5112 20.7083 19.2122L19.5223 6.27469ZM11.5011 2.875C12.7445 2.875 13.3914 3.32062 13.5855 4.3125H9.41672C9.61078 3.32062 10.2577 2.875 11.5011 2.875ZM19.0839 19.8878C19.0167 19.9623 18.9347 20.0218 18.8431 20.0627C18.7515 20.1035 18.6523 20.1248 18.552 20.125H4.45016C4.34986 20.1248 4.25072 20.1035 4.15912 20.0627C4.06752 20.0218 3.98548 19.9623 3.91828 19.8878C3.85107 19.8146 3.79975 19.7283 3.76759 19.6343C3.73542 19.5403 3.7231 19.4406 3.73141 19.3416L4.91016 6.40406C4.92635 6.22486 5.00917 6.05825 5.14224 5.93715C5.27532 5.81605 5.44898 5.74927 5.62891 5.75H17.3733C17.5532 5.74927 17.7269 5.81605 17.8599 5.93715C17.993 6.05825 18.0758 6.22486 18.092 6.40406L19.2708 19.3416C19.2791 19.4406 19.2668 19.5403 19.2346 19.6343C19.2024 19.7283 19.1511 19.8146 19.0839 19.8878Z" fill="black"/>
<path d="M14.375 7.90625C14.1844 7.90625 14.0016 7.98198 13.8668 8.11677C13.732 8.25156 13.6562 8.43438 13.6562 8.625C13.6562 12.9375 12.0319 12.9375 11.5 12.9375C10.9681 12.9375 9.34375 12.9375 9.34375 8.625C9.34375 8.43438 9.26802 8.25156 9.13323 8.11677C8.99844 7.98198 8.81562 7.90625 8.625 7.90625C8.43438 7.90625 8.25156 7.98198 8.11677 8.11677C7.98198 8.25156 7.90625 8.43438 7.90625 8.625C7.90625 13.3759 9.86125 14.375 11.5 14.375C13.1388 14.375 15.0938 13.3759 15.0938 8.625C15.0938 8.43438 15.018 8.25156 14.8832 8.11677C14.7484 7.98198 14.5656 7.90625 14.375 7.90625Z" fill="black"/>
</svg>
