<svg width="14" height="14" viewBox="0 0 14 14" fill="none" xmlns="http://www.w3.org/2000/svg">
<path d="M12.25 3.63562L10.5744 1.94249L10.6575 1.85499C10.7317 1.76575 10.8228 1.69214 10.9257 1.63847C11.0286 1.5848 11.1411 1.55212 11.2568 1.54235C11.3724 1.53258 11.4888 1.54591 11.5992 1.58155C11.7097 1.6172 11.8119 1.67446 11.9 1.74999L12.4644 2.31437C12.5397 2.40273 12.5966 2.5052 12.6319 2.61579C12.6672 2.72638 12.6801 2.84289 12.6699 2.95852C12.6598 3.07416 12.6267 3.18662 12.5726 3.28935C12.5185 3.39207 12.4446 3.48301 12.355 3.55687L12.25 3.63562ZM3.9375 10.6969L5.59562 10.0931C5.79468 10.0253 5.9757 9.91308 6.125 9.76499L11.6463 4.25687L9.95312 2.56374L4.445 8.07187C4.29958 8.21819 4.18763 8.39433 4.11687 8.58812L3.5 10.2462C3.47856 10.3103 3.47566 10.3791 3.49162 10.4448C3.50758 10.5104 3.54175 10.5703 3.59021 10.6173C3.63867 10.6644 3.69943 10.6969 3.76552 10.7109C3.8316 10.725 3.90032 10.7201 3.96375 10.6969H3.9375ZM12.6613 11.5719H1.3125C1.19647 11.5719 1.08519 11.618 1.00314 11.7C0.921094 11.7821 0.875 11.8933 0.875 12.0094C0.875 12.1254 0.921094 12.2367 1.00314 12.3187C1.08519 12.4008 1.19647 12.4469 1.3125 12.4469H12.6875C12.8035 12.4469 12.9148 12.4008 12.9969 12.3187C13.0789 12.2367 13.125 12.1254 13.125 12.0094C13.125 11.8933 13.0789 11.7821 12.9969 11.7C12.9148 11.618 12.8035 11.5719 12.6875 11.5719H12.6613Z" fill="#FB9E90"/>
</svg>
