<svg width="23" height="23" viewBox="0 0 23 23" fill="none" xmlns="http://www.w3.org/2000/svg">
<path d="M19.5214 6.27469C19.4728 5.73709 19.2243 5.23726 18.8251 4.87396C18.4259 4.51066 17.9049 4.31031 17.3651 4.3125H15.0436C14.792 2.45813 13.5629 1.4375 11.5001 1.4375C9.43731 1.4375 8.20824 2.45813 7.95668 4.3125H5.62793C5.08815 4.31031 4.56717 4.51066 4.16794 4.87396C3.76871 5.23726 3.52026 5.73709 3.47168 6.27469L2.29293 19.2122C2.26591 19.5112 2.30163 19.8126 2.39783 20.0971C2.49402 20.3815 2.64856 20.6427 2.85155 20.864C3.05453 21.0852 3.30149 21.2616 3.5766 21.3819C3.85172 21.5022 4.14892 21.5637 4.44918 21.5625H18.5511C18.8513 21.5637 19.1485 21.5022 19.4236 21.3819C19.6987 21.2616 19.9457 21.0852 20.1487 20.864C20.3517 20.6427 20.5062 20.3815 20.6024 20.0971C20.6986 19.8126 20.7343 19.5112 20.7073 19.2122L19.5214 6.27469ZM11.5001 2.875C12.7436 2.875 13.3904 3.32062 13.5845 4.3125H9.41574C9.60981 3.32062 10.2567 2.875 11.5001 2.875ZM19.0829 19.8878C19.0157 19.9623 18.9337 20.0218 18.8421 20.0627C18.7505 20.1035 18.6514 20.1248 18.5511 20.125H4.44918C4.34889 20.1248 4.24975 20.1035 4.15815 20.0627C4.06654 20.0218 3.98451 19.9623 3.91731 19.8878C3.85009 19.8146 3.79878 19.7283 3.76661 19.6343C3.73445 19.5403 3.72213 19.4406 3.73043 19.3416L4.90918 6.40406C4.92537 6.22486 5.00819 6.05825 5.14127 5.93715C5.27434 5.81605 5.448 5.74927 5.62793 5.75H17.3723C17.5522 5.74927 17.7259 5.81605 17.859 5.93715C17.992 6.05825 18.0749 6.22486 18.0911 6.40406L19.2698 19.3416C19.2781 19.4406 19.2658 19.5403 19.2336 19.6343C19.2015 19.7283 19.1502 19.8146 19.0829 19.8878Z" fill="black"/>
<path d="M14.375 7.90625C14.1844 7.90625 14.0016 7.98198 13.8668 8.11677C13.732 8.25156 13.6562 8.43438 13.6562 8.625C13.6562 12.9375 12.0319 12.9375 11.5 12.9375C10.9681 12.9375 9.34375 12.9375 9.34375 8.625C9.34375 8.43438 9.26802 8.25156 9.13323 8.11677C8.99844 7.98198 8.81562 7.90625 8.625 7.90625C8.43438 7.90625 8.25156 7.98198 8.11677 8.11677C7.98198 8.25156 7.90625 8.43438 7.90625 8.625C7.90625 13.3759 9.86125 14.375 11.5 14.375C13.1388 14.375 15.0938 13.3759 15.0938 8.625C15.0938 8.43438 15.018 8.25156 14.8832 8.11677C14.7484 7.98198 14.5656 7.90625 14.375 7.90625Z" fill="black"/>
</svg>
