<svg width="21" height="21" viewBox="0 0 21 21" fill="none" xmlns="http://www.w3.org/2000/svg">
<path d="M10.5 0C4.704 0 0 4.704 0 10.5C0 16.296 4.704 21 10.5 21C16.296 21 21 16.296 21 10.5C21 4.704 16.296 0 10.5 0ZM10.5 19.488C5.544 19.488 1.512 15.456 1.512 10.5C1.512 5.544 5.544 1.512 10.5 1.512C15.456 1.512 19.488 5.544 19.488 10.5C19.488 15.456 15.456 19.488 10.5 19.488Z" fill="black"/>
<path d="M15.918 12.054V11.298H10.395L9.07201 9.891L9.17701 9.807H15.918V9.051H9.97501L15.456 3.927H13.335L8.31601 8.631V3.927H6.74101V9.051H3.90601V9.807H6.74101V11.298H3.90601V12.054H6.74101V17.178H8.31601V12.054H9.00901L13.797 17.157L13.839 17.178H15.918L11.109 12.054H15.918Z" fill="black"/>
</svg>
