<svg width="17" height="16" viewBox="0 0 17 16" fill="none" xmlns="http://www.w3.org/2000/svg">
<path d="M16.4571 15.0501L11.7303 10.3707C12.5365 9.29568 13.0108 7.95191 13.0108 6.49749C13.0108 2.92466 10.0861 0 6.49749 0C2.90885 0 0 2.92466 0 6.49749C0 10.0861 2.92466 12.995 6.49749 12.995C8.25229 12.995 9.84899 12.2994 11.0189 11.1611L15.7141 15.809L16.4571 15.0501ZM6.49749 11.9516C3.49378 11.9516 1.0592 9.517 1.0592 6.5133C1.0592 3.50959 3.49378 1.07501 6.49749 1.07501C9.50119 1.07501 11.9358 3.50959 11.9358 6.5133C11.9516 9.50119 9.50119 11.9516 6.49749 11.9516Z" fill="black"/>
</svg>
