<svg width="23" height="23" viewBox="0 0 23 23" fill="none" xmlns="http://www.w3.org/2000/svg">
<path d="M12.0625 2C10.0723 2 8.12685 2.59016 6.47208 3.69584C4.81731 4.80152 3.52757 6.37307 2.76597 8.21175C2.00436 10.0504 1.80509 12.0737 2.19335 14.0256C2.58162 15.9775 3.53998 17.7705 4.94724 19.1778C6.35451 20.585 8.14747 21.5434 10.0994 21.9317C12.0513 22.3199 14.0746 22.1206 15.9133 21.359C17.7519 20.5974 19.3235 19.3077 20.4292 17.6529C21.5348 15.9982 22.125 14.0527 22.125 12.0625C22.125 9.39376 21.0648 6.83432 19.1778 4.94724C17.2907 3.06015 14.7312 2 12.0625 2ZM7.03125 19.0631C7.03125 17.7288 7.56133 16.449 8.50487 15.5055C9.44842 14.562 10.7281 14.0319 12.0625 14.0319C13.3969 14.0319 14.6766 14.562 15.6201 15.5055C16.5637 16.449 17.0938 17.7288 17.0938 19.0631C15.63 20.1224 13.8693 20.6927 12.0625 20.6927C10.2557 20.6927 8.49498 20.1224 7.03125 19.0631ZM18.3875 17.9059C18.0772 16.4587 17.28 15.1617 16.129 14.2313C14.9779 13.3009 13.5426 12.7933 12.0625 12.7933C10.5824 12.7933 9.14711 13.3009 7.99604 14.2313C6.84498 15.1617 6.04779 16.4587 5.7375 17.9059C4.59662 16.6753 3.8395 15.1386 3.55892 13.4842C3.27834 11.8297 3.48649 10.1293 4.15787 8.59136C4.82925 7.05342 5.93468 5.74473 7.33872 4.82566C8.74276 3.90659 10.3844 3.41707 12.0625 3.41707C13.7406 3.41707 15.3823 3.90659 16.7863 4.82566C18.1903 5.74473 19.2958 7.05342 19.9671 8.59136C20.6385 10.1293 20.8467 11.8297 20.5661 13.4842C20.2855 15.1386 19.5284 16.6753 18.3875 17.9059ZM12.0625 4.875C11.3517 4.875 10.6569 5.08577 10.0659 5.48066C9.47494 5.87554 9.01431 6.43681 8.74231 7.09348C8.47031 7.75015 8.39914 8.47274 8.53781 9.16986C8.67647 9.86697 9.01874 10.5073 9.52134 11.0099C10.0239 11.5125 10.6643 11.8548 11.3614 11.9934C12.0585 12.1321 12.7811 12.0609 13.4378 11.7889C14.0944 11.5169 14.6557 11.0563 15.0506 10.4653C15.4455 9.87434 15.6563 9.17953 15.6563 8.46875C15.6563 7.51563 15.2776 6.60154 14.6037 5.92759C13.9297 5.25363 13.0156 4.875 12.0625 4.875ZM12.0625 10.625C11.636 10.625 11.2191 10.4985 10.8646 10.2616C10.51 10.0247 10.2336 9.68791 10.0704 9.29391C9.90719 8.89991 9.86449 8.46636 9.94769 8.04809C10.0309 7.62982 10.2362 7.24561 10.5378 6.94405C10.8394 6.64249 11.2236 6.43713 11.6418 6.35393C12.0601 6.27073 12.4937 6.31343 12.8877 6.47663C13.2817 6.63984 13.6184 6.91621 13.8554 7.2708C14.0923 7.6254 14.2188 8.04228 14.2188 8.46875C14.2188 9.04062 13.9916 9.58907 13.5872 9.99345C13.1828 10.3978 12.6344 10.625 12.0625 10.625Z" fill="black"/>
</svg>
