<svg width="11" height="11" viewBox="0 0 11 11" fill="none" xmlns="http://www.w3.org/2000/svg">
<path d="M5.87926 5.24569L10.2541 5.24569C10.2966 5.24419 10.339 5.25127 10.3788 5.26651C10.4185 5.28176 10.4548 5.30485 10.4854 5.33441C10.516 5.36397 10.5404 5.3994 10.557 5.43858C10.5736 5.47776 10.5822 5.51988 10.5822 5.56245C10.5822 5.60501 10.5736 5.64714 10.557 5.68632C10.5404 5.7255 10.516 5.76092 10.4854 5.79049C10.4548 5.82005 10.4185 5.84314 10.3788 5.85838C10.339 5.87362 10.2966 5.88071 10.2541 5.8792L5.87926 5.8792L5.87926 10.254C5.87636 10.3361 5.84172 10.4138 5.78263 10.4709C5.72354 10.5279 5.64463 10.5598 5.5625 10.5598C5.48037 10.5598 5.40146 10.5279 5.34237 10.4709C5.28328 10.4138 5.24864 10.3361 5.24574 10.254L5.24574 5.8792L0.870929 5.8792C0.828391 5.88071 0.785987 5.87362 0.746246 5.85838C0.706504 5.84314 0.67024 5.82005 0.639616 5.79049C0.608993 5.76092 0.584638 5.7255 0.568003 5.68632C0.551368 5.64714 0.542795 5.60501 0.542795 5.56245C0.542795 5.51988 0.551368 5.47776 0.568002 5.43858C0.584637 5.3994 0.608993 5.36397 0.639617 5.33441C0.67024 5.30485 0.706504 5.28176 0.746245 5.26651C0.785987 5.25127 0.828392 5.24419 0.870929 5.24569L5.24574 5.24569V0.870877C5.24424 0.82834 5.25132 0.785935 5.26657 0.746194C5.28181 0.706453 5.3049 0.670188 5.33446 0.639565C5.36402 0.608941 5.39945 0.584586 5.43863 0.567951C5.47781 0.551316 5.51994 0.542743 5.5625 0.542743C5.60506 0.542743 5.64719 0.551316 5.68637 0.567951C5.72555 0.584586 5.76098 0.608941 5.79054 0.639565C5.8201 0.670188 5.84319 0.706453 5.85843 0.746194C5.87368 0.785935 5.88076 0.82834 5.87926 0.870877V5.24569Z" fill="black"/>
</svg>
