<svg width="175" height="23" viewBox="0 0 175 23" fill="none" xmlns="http://www.w3.org/2000/svg">
<mask id="mask0_7_570" style="mask-type:luminance" maskUnits="userSpaceOnUse" x="2" y="1" width="17" height="21">
<path d="M2.82361 1.53334H18.7134V21.3259H2.82361V1.53334Z" fill="white"/>
</mask>
<g mask="url(#mask0_7_570)">
<path d="M17.5558 1.54532H13.3783L6.54845 9.78099V1.54532H2.99072V20.7988H6.54845V12.3385L13.6062 20.7988H18.0085L9.65348 10.8921L17.5558 1.54532Z" fill="#0082D1"/>
</g>
<mask id="mask1_7_570" style="mask-type:luminance" maskUnits="userSpaceOnUse" x="19" y="1" width="22" height="21">
<path d="M19.4911 1.29376H40.4911V21.3259H19.4911V1.29376Z" fill="white"/>
</mask>
<g mask="url(#mask1_7_570)">
<path d="M29.8635 1.37762C19.9833 1.54533 19.9833 10.8921 19.9833 10.8921C19.9833 10.8921 19.5884 21.0744 29.8635 21.0744C38.8961 21.0744 39.7407 13.6742 39.7407 10.8921C39.7407 9.16707 38.6135 1.26681 29.8635 1.37762ZM29.8635 18.1814C28.6786 18.1814 23.7112 17.849 23.8236 10.8921C23.936 4.10288 29.8635 4.32749 29.8635 4.32749C29.8635 4.32749 35.6209 4.04897 35.9035 10.8921C36.186 17.7382 31.0484 18.1814 29.8635 18.1814Z" fill="#0082D1"/>
</g>
<mask id="mask2_7_570" style="mask-type:luminance" maskUnits="userSpaceOnUse" x="43" y="1" width="12" height="21">
<path d="M43.6022 1.53334H54.4911V21.3259H43.6022V1.53334Z" fill="white"/>
</mask>
<g mask="url(#mask2_7_570)">
<path d="M43.6355 1.54532V20.7988H54.2509V17.849H47.2509V1.54532H43.6355Z" fill="#0082D1"/>
</g>
<mask id="mask3_7_570" style="mask-type:luminance" maskUnits="userSpaceOnUse" x="77" y="1" width="21" height="21">
<path d="M77.0468 1.29376H97.269V21.3259H77.0468V1.29376Z" fill="white"/>
</mask>
<g mask="url(#mask3_7_570)">
<path d="M87.2186 1.37762C77.3384 1.54533 77.3384 10.8921 77.3384 10.8921C77.3384 10.8921 76.9435 21.0744 87.2186 21.0744C96.2512 21.0744 97.0958 13.6742 97.0958 10.8921C97.1535 9.16707 95.9686 1.26681 87.2186 1.37762ZM87.2186 18.1814C86.0338 18.1814 81.0633 17.849 81.1787 10.8921C81.2911 4.10288 87.2186 4.32749 87.2186 4.32749C87.2186 4.32749 92.976 4.04897 93.2586 10.8921C93.5411 17.7382 88.4035 18.1814 87.2186 18.1814Z" fill="#0082D1"/>
</g>
<mask id="mask4_7_570" style="mask-type:luminance" maskUnits="userSpaceOnUse" x="56" y="1" width="18" height="21">
<path d="M56.0466 1.29376H73.9355V21.3259H56.0466V1.29376Z" fill="white"/>
</mask>
<g mask="url(#mask4_7_570)">
<path d="M72.7111 2.32399C72.7111 2.32399 70.396 1.43154 67.291 1.37763C62.2111 1.20992 55.9433 4.49221 56.2259 11.4491C56.5631 20.7989 63.791 21.0744 67.291 21.0744C70.8457 21.0744 73.6135 19.574 73.6135 19.574V11.4491H70.0011V17.5705C70.0011 17.5705 68.9286 18.0706 67.2333 18.1814C65.541 18.2922 60.2333 18.0137 60.0084 11.4491C59.896 5.27385 65.4833 4.3275 67.3457 4.3275C70.1135 4.3275 72.7658 5.66318 72.7658 5.66318V2.32399H72.7111Z" fill="#0082D1"/>
</g>
<mask id="mask5_7_570" style="mask-type:luminance" maskUnits="userSpaceOnUse" x="98" y="1" width="18" height="21">
<path d="M98.8245 1.53334H115.158V21.3259H98.8245V1.53334Z" fill="white"/>
</mask>
<g mask="url(#mask5_7_570)">
<path d="M99.0159 1.54532V4.54909H104.773V20.7988H108.386V4.54909H113.581L114.541 1.54532H99.0159Z" fill="#0082D1"/>
</g>
<mask id="mask6_7_570" style="mask-type:luminance" maskUnits="userSpaceOnUse" x="114" y="16" width="6" height="6">
<path d="M114.38 16.1H119.047V21.3259H114.38V16.1Z" fill="white"/>
</mask>
<g mask="url(#mask6_7_570)">
<path d="M118.831 18.96C118.831 19.2416 118.776 19.5111 118.667 19.7716C118.558 20.0292 118.403 20.2568 118.202 20.4574C118.002 20.6551 117.771 20.8078 117.506 20.9156C117.245 21.0235 116.969 21.0744 116.686 21.0744C116.4 21.0744 116.127 21.0235 115.866 20.9156C115.601 20.8078 115.37 20.6551 115.17 20.4574C114.966 20.2568 114.811 20.0292 114.705 19.7716C114.596 19.5111 114.541 19.2416 114.541 18.96C114.541 18.6815 114.596 18.412 114.705 18.1514C114.811 17.8939 114.966 17.6633 115.17 17.4656C115.37 17.268 115.601 17.1152 115.866 17.0074C116.127 16.8996 116.4 16.8457 116.686 16.8457C116.969 16.8457 117.245 16.8996 117.506 17.0074C117.771 17.1152 118.002 17.268 118.202 17.4656C118.403 17.6633 118.558 17.8939 118.667 18.1514C118.776 18.412 118.831 18.6815 118.831 18.96Z" fill="#FFD100"/>
</g>
<mask id="mask7_7_570" style="mask-type:luminance" maskUnits="userSpaceOnUse" x="156" y="1" width="17" height="21">
<path d="M156.38 1.53334H172.087V21.3259H156.38V1.53334Z" fill="white"/>
</mask>
<g mask="url(#mask7_7_570)">
<path d="M156.653 1.54532V4.54909H162.411V20.7988H165.969V4.54909H171.219L172.179 1.54532H156.653Z" fill="#FFD100"/>
</g>
<mask id="mask8_7_570" style="mask-type:luminance" maskUnits="userSpaceOnUse" x="143" y="1" width="13" height="21">
<path d="M143.936 1.29376H155.602V21.3259H143.936V1.29376Z" fill="white"/>
</mask>
<g mask="url(#mask8_7_570)">
<path d="M155.073 4.32749V1.37762H144.516V20.7988H155.073V17.849H148.073V12.5063H153.943V9.5564H148.073V4.32749H155.073Z" fill="#FFD100"/>
</g>
<mask id="mask9_7_570" style="mask-type:luminance" maskUnits="userSpaceOnUse" x="122" y="1" width="19" height="21">
<path d="M122.158 1.29376H140.047V21.3259H122.158V1.29376Z" fill="white"/>
</mask>
<g mask="url(#mask9_7_570)">
<path d="M136.386 1.37762V16.0132L125.831 1.37762H122.219V20.7988H125.831V6.49572L136.386 20.7988H140.001V1.37762H136.386Z" fill="#FFD100"/>
</g>
</svg>
